<svg width="637" height="84" viewBox="0 0 637 84" fill="none" xmlns="http://www.w3.org/2000/svg">
<path d="M435.881 42.3059C435.881 34.3799 442.028 27.9098 450.007 27.9098C457.34 27.9098 463.217 34.326 463.217 42.0363C463.217 42.845 463.163 43.6538 463.056 44.4087H442.243C443.106 48.776 446.664 51.0945 450.762 51.0945C453.566 51.0945 456.262 50.2318 458.634 48.6682L461.114 53.1973C458.041 55.3001 454.429 56.4863 450.654 56.4863C442.89 56.5941 435.881 51.3641 435.881 42.3059ZM457.286 39.8796C457.071 38.0463 456.154 36.3749 454.752 35.1887C453.404 34.0025 451.571 33.3555 449.738 33.3555C446.179 33.3555 443.106 35.9975 442.243 39.9335H457.286V39.8796Z" fill="#F9F9F9"/>
<path d="M466.991 19.3867H473.138V56.0509H466.991V19.3867Z" fill="#F9F9F9"/>
<path d="M476.912 42.3059C476.912 34.3799 483.059 27.9098 491.039 27.9098C498.371 27.9098 504.248 34.326 504.248 42.0363C504.248 42.845 504.141 43.6538 504.087 44.4087H483.274C484.137 48.776 487.696 51.0945 491.793 51.0945C494.597 51.0945 497.347 50.2857 499.665 48.7221L502.146 53.2512C499.072 55.354 495.46 56.5402 491.686 56.5402C483.921 56.5941 476.912 51.3641 476.912 42.3059ZM498.264 39.8796C498.048 38.0463 497.131 36.3749 495.729 35.1887C494.381 34.0025 492.548 33.3555 490.715 33.3555C487.156 33.3555 484.083 35.9975 483.22 39.9335H498.264V39.8796Z" fill="#F9F9F9"/>
<path d="M506.567 42.3059C506.567 34.2721 513.038 27.9098 521.179 27.9098C529.267 27.9098 535.791 34.2721 535.791 42.3059C535.791 50.2857 529.321 56.5941 521.179 56.5941C513.038 56.5941 506.567 50.2318 506.567 42.3059ZM529.483 42.3059C529.483 37.4533 525.87 33.8947 521.179 33.8947C516.488 33.8947 512.876 37.4533 512.876 42.3059C512.876 47.1045 516.488 50.6631 521.179 50.6631C525.87 50.6631 529.483 47.1045 529.483 42.3059Z" fill="#F9F9F9"/>
<path d="M537.301 52.6042L539.619 47.5359C541.398 48.9917 544.202 50.8249 548.3 50.8249C550.78 50.8249 553.746 49.9083 553.746 47.9133C553.746 45.9723 550.942 45.4331 548.246 44.6243C543.07 43.1685 538.595 41.6049 538.595 36.2131C538.595 30.8214 544.094 27.9098 548.893 27.9098C552.991 27.9098 555.687 28.9342 558.706 30.7674L556.441 35.7818C554.177 34.4338 551.589 33.679 548.947 33.7329C546.898 33.7329 544.849 34.6495 544.849 36.1053C544.849 37.9924 547.114 38.4238 549.54 38.963C554.662 40.0952 560 42.1441 560 47.8055C560 54.2756 553.368 56.5941 548.3 56.5941C542.746 56.5941 538.81 54.006 537.301 52.6042Z" fill="#F9F9F9"/>
<path d="M354.573 29.5798C356.137 29.5798 357.431 28.2858 357.431 26.7221C357.431 25.1585 356.137 23.8645 354.573 23.8645C353.01 23.8645 351.716 25.1585 351.716 26.7221C351.716 28.2858 353.01 29.5798 354.573 29.5798Z" fill="#F9F9F9"/>
<path d="M348.858 11.7271C350.421 11.7271 351.715 10.4331 351.715 8.86949C351.715 7.30587 350.421 6.01184 348.858 6.01184C347.294 6.01184 346 7.30587 346 8.86949C346 10.4331 347.294 11.7271 348.858 11.7271Z" fill="#F9F9F9"/>
<path d="M409.496 40.6803L409.511 40.6706L409.525 40.6605C410.658 39.8512 411.737 38.9564 412.676 37.8783C412.784 37.7872 412.87 37.6892 412.937 37.5939C413.155 37.3579 413.323 37.1336 413.45 36.9632C415.797 34.0398 416.92 30.7437 417.442 27.988C418.258 30.0464 418.934 32.1517 419.431 34.2802C421.901 45.0382 418.827 55.7126 411.515 64.0618C406.156 70.1564 399.25 75.1024 391.408 76.7942C379.021 79.4444 366.166 72.8688 359.103 62.482L359.1 62.4779C357.886 60.7052 356.685 57.8882 356.219 54.7604C355.753 51.6399 356.036 48.3444 357.611 45.5053L357.613 45.5015C359.122 42.7608 361.47 41.3556 364.043 40.7981C366.657 40.2319 369.482 40.5534 371.733 41.2951C371.85 41.3341 371.967 41.3732 372.084 41.4124C375.354 42.5031 378.841 43.6662 382.396 44.3125C387.002 45.1548 391.734 45.0922 396.234 44.6533C397.403 44.5419 398.619 44.3759 399.753 44.2138L399.759 44.2129C401.669 43.9321 403.335 43.5337 404.906 42.9524C406.496 42.384 408.018 41.6857 409.496 40.6803Z" stroke="#F9F9F9" stroke-width="3"/>
<path d="M359.156 10.9748C359.425 11.2444 359.803 11.46 360.18 11.5679C360.558 11.6757 360.935 11.7836 361.366 11.7296H378.674C379.051 11.7296 379.483 11.8914 379.806 12.161C380.076 12.4306 380.238 12.8619 380.238 13.2933C380.238 13.7246 380.076 14.102 379.806 14.4255C379.483 14.6951 379.105 14.9108 378.674 14.9108H369.724C369.023 14.9647 368.322 15.2882 367.783 15.7735C367.243 16.3126 367.028 17.0136 367.028 17.7684C367.028 18.4694 367.297 19.2242 367.783 19.7634C368.268 20.3026 368.969 20.6261 369.724 20.6261H386.6C386.977 20.6261 387.409 20.7878 387.732 21.0574C388.002 21.327 388.164 21.7584 388.164 22.1897C388.164 22.621 388.002 22.9985 387.732 23.322C387.409 23.6455 386.977 23.8072 386.546 23.8072H363.901C363.2 23.8612 362.499 24.1847 361.959 24.6699C361.474 25.2091 361.205 25.91 361.205 26.6649C361.205 27.4197 361.474 28.1207 361.959 28.6598C362.499 29.199 363.254 29.4686 363.954 29.4686H389.242C394.957 29.4686 399.756 33.9438 399.972 39.6052C400.026 40.6835 399.864 41.7619 399.594 42.7324C418.196 39.9287 416.363 22.1897 416.309 22.0279C415.877 21.1653 414.206 18.9546 413.505 18.2537C410 14.4255 405.741 11.3522 400.942 9.24941C396.359 7.0927 391.183 6.01434 386.007 6.01434H361.259C360.881 5.96042 360.45 6.06826 360.072 6.17609C359.695 6.28393 359.371 6.4996 359.048 6.76919C358.778 7.03878 358.509 7.36229 358.347 7.73971C358.185 8.11714 358.131 8.49456 358.131 8.87199C358.131 9.24941 358.185 9.62684 358.347 10.0043C358.617 10.3817 358.832 10.7052 359.156 10.9748Z" fill="#F9F9F9"/>
<path d="M435.683 42.3637C435.683 34.4252 441.839 27.9447 449.832 27.9447C457.176 27.9447 463.063 34.3712 463.063 42.0937C463.063 42.9038 463.009 43.7138 462.901 44.4699H442.055C442.919 48.8442 446.484 51.1664 450.588 51.1664C453.396 51.1664 456.096 50.3023 458.473 48.7362L460.957 53.2725C457.879 55.3787 454.26 56.5668 450.48 56.5668C442.703 56.6748 435.683 51.4364 435.683 42.3637ZM457.122 39.9336C456.906 38.0974 455.988 36.4233 454.584 35.2352C453.234 34.0471 451.398 33.3991 449.562 33.3991C445.998 33.3991 442.919 36.0453 442.055 39.9876H457.122V39.9336Z" fill="#223648"/>
<path d="M466.843 19.4081H472.999V56.1307H466.843V19.4081Z" fill="#223648"/>
<path d="M476.78 42.3637C476.78 34.4252 482.936 27.9447 490.929 27.9447C498.273 27.9447 504.159 34.3712 504.159 42.0937C504.159 42.9038 504.051 43.7138 503.997 44.4699H483.152C484.016 48.8442 487.58 51.1664 491.685 51.1664C494.493 51.1664 497.247 50.3563 499.569 48.7902L502.053 53.3265C498.975 55.4327 495.357 56.6208 491.577 56.6208C483.8 56.6748 476.78 51.4364 476.78 42.3637ZM498.165 39.9336C497.949 38.0974 497.031 36.4233 495.627 35.2352C494.277 34.0471 492.441 33.3991 490.605 33.3991C487.04 33.3991 483.962 36.0453 483.098 39.9876H498.165V39.9336Z" fill="#223648"/>
<path d="M506.482 42.3637C506.482 34.3172 512.963 27.9447 521.117 27.9447C529.218 27.9447 535.752 34.3172 535.752 42.3637C535.752 50.3563 529.272 56.6748 521.117 56.6748C512.963 56.6748 506.482 50.3023 506.482 42.3637ZM529.434 42.3637C529.434 37.5034 525.816 33.9391 521.117 33.9391C516.419 33.9391 512.801 37.5034 512.801 42.3637C512.801 47.1701 516.419 50.7343 521.117 50.7343C525.816 50.7343 529.434 47.1701 529.434 42.3637Z" fill="#223648"/>
<path d="M537.264 52.6785L539.587 47.6021C541.369 49.0602 544.177 50.8963 548.281 50.8963C550.765 50.8963 553.736 49.9783 553.736 47.9801C553.736 46.036 550.927 45.496 548.227 44.6859C543.043 43.2278 538.56 41.6617 538.56 36.2613C538.56 30.8609 544.069 27.9447 548.875 27.9447C552.98 27.9447 555.68 28.9708 558.704 30.8069L556.436 35.8293C554.168 34.4792 551.575 33.7231 548.929 33.7771C546.877 33.7771 544.825 34.6952 544.825 36.1533C544.825 38.0434 547.093 38.4755 549.523 39.0155C554.654 40.1496 560 42.2017 560 47.8721C560 54.3526 553.358 56.6748 548.281 56.6748C542.719 56.6748 538.776 54.0826 537.264 52.6785Z" fill="#223648"/>
<path d="M354.246 29.6174C355.812 29.6174 357.108 28.3213 357.108 26.7552C357.108 25.1891 355.812 23.893 354.246 23.893C352.679 23.893 351.383 25.1891 351.383 26.7552C351.383 28.3213 352.679 29.6174 354.246 29.6174Z" fill="#223648"/>
<path d="M348.521 11.736C350.087 11.736 351.383 10.4399 351.383 8.8738C351.383 7.30769 350.087 6.0116 348.521 6.0116C346.955 6.0116 345.659 7.30769 345.659 8.8738C345.659 10.4399 346.955 11.736 348.521 11.736Z" fill="#223648"/>
<path d="M420.67 33.9849C419.698 29.8266 418.078 25.7763 416.08 21.996C416.08 22.104 416.944 29.9886 412.03 36.091C411.868 36.3071 411.706 36.5231 411.49 36.7391C411.49 36.7391 411.49 36.7931 411.436 36.7931C410.572 37.8192 409.546 38.6832 408.412 39.4933C407.061 40.4114 405.657 41.0594 404.145 41.5994C402.687 42.1395 401.121 42.5175 399.285 42.7875C398.151 42.9495 396.963 43.1116 395.829 43.2196C391.4 43.6516 386.81 43.7056 382.382 42.8955C378.817 42.2475 375.307 41.0594 371.905 39.9253C366.991 38.3052 359.484 38.4672 355.974 44.8397C352.41 51.2661 354.84 59.4747 357.54 63.417C364.884 74.2178 378.331 81.1843 391.454 78.3761C399.717 76.594 406.899 71.4096 412.408 65.1451C420.022 56.4505 423.263 45.2717 420.67 33.9849Z" fill="#F9B534"/>
<path d="M358.835 10.9827C359.105 11.2527 359.483 11.4688 359.861 11.5768C360.239 11.6848 360.617 11.7928 361.049 11.7388H378.385C378.763 11.7388 379.195 11.9008 379.519 12.1708C379.789 12.4408 379.951 12.8729 379.951 13.3049C379.951 13.7369 379.789 14.1149 379.519 14.439C379.195 14.709 378.817 14.925 378.385 14.925H369.42C368.718 14.979 368.016 15.303 367.476 15.7891C366.936 16.3291 366.72 17.0312 366.72 17.7872C366.72 18.4893 366.99 19.2453 367.476 19.7854C367.962 20.3254 368.664 20.6494 369.42 20.6494H386.323C386.701 20.6494 387.133 20.8114 387.457 21.0814C387.727 21.3515 387.889 21.7835 387.889 22.2155C387.889 22.6476 387.727 23.0256 387.457 23.3496C387.133 23.6736 386.701 23.8356 386.269 23.8356H363.588C362.886 23.8896 362.184 24.2137 361.644 24.6997C361.158 25.2397 360.887 25.9418 360.887 26.6978C360.887 27.4539 361.158 28.156 361.644 28.696C362.184 29.236 362.94 29.5061 363.642 29.5061H388.97C394.694 29.5061 399.5 33.9884 399.716 39.6588C399.77 40.7389 399.608 41.8189 399.338 42.791C417.97 39.9828 416.133 22.2155 416.079 22.0535C415.647 21.1895 413.973 18.9753 413.271 18.2732C409.761 14.439 405.495 11.3607 400.688 9.2546C396.098 7.09444 390.914 6.01436 385.729 6.01436H360.941C360.563 5.96036 360.131 6.06837 359.753 6.17638C359.375 6.28438 359.051 6.5004 358.727 6.77042C358.457 7.04044 358.187 7.36446 358.025 7.74249C357.863 8.12052 357.809 8.49854 357.809 8.87657C357.809 9.2546 357.863 9.63262 358.025 10.0107C358.295 10.3887 358.511 10.7127 358.835 10.9827Z" fill="#223648"/>
<path d="M71.582 57V54.5391L74.7656 53.9922V31.5898L71.582 31.043V28.5625H74.7656H84.6484C86.6797 28.5625 88.4115 28.9206 89.8438 29.6367C91.276 30.3398 92.3698 31.3294 93.125 32.6055C93.8802 33.8815 94.2578 35.3724 94.2578 37.0781C94.2578 38.7969 93.8802 40.2943 93.125 41.5703C92.3698 42.8464 91.276 43.8359 89.8438 44.5391C88.4115 45.2422 86.6797 45.5938 84.6484 45.5938H78.6133V53.9922L81.7969 54.5391V57H71.582ZM78.6133 42.5859H84.6484C86.5755 42.5859 88.0143 42.0716 88.9648 41.043C89.9284 40.0013 90.4102 38.6927 90.4102 37.1172C90.4102 35.5417 89.9284 34.2266 88.9648 33.1719C88.0143 32.1172 86.5755 31.5898 84.6484 31.5898H78.6133V42.5859Z" fill="#223648"/>
<path d="M105.957 57.4102C104.004 57.4102 102.318 56.9544 100.898 56.043C99.4922 55.1185 98.4049 53.849 97.6367 52.2344C96.8685 50.6068 96.4844 48.7513 96.4844 46.668V46.2383C96.4844 44.1549 96.8685 42.306 97.6367 40.6914C98.4049 39.0638 99.4922 37.7878 100.898 36.8633C102.318 35.9388 103.991 35.4766 105.918 35.4766C107.871 35.4766 109.551 35.9388 110.957 36.8633C112.376 37.7878 113.47 39.0573 114.238 40.6719C115.007 42.2865 115.391 44.1419 115.391 46.2383V46.668C115.391 48.7643 115.007 50.6263 114.238 52.2539C113.47 53.8685 112.383 55.1315 110.977 56.043C109.57 56.9544 107.897 57.4102 105.957 57.4102ZM105.957 54.4023C107.181 54.4023 108.203 54.0703 109.023 53.4062C109.857 52.7292 110.482 51.8112 110.898 50.6523C111.328 49.4805 111.543 48.1523 111.543 46.668V46.2383C111.543 44.7539 111.328 43.4323 110.898 42.2734C110.482 41.1016 109.857 40.1836 109.023 39.5195C108.19 38.8424 107.155 38.5039 105.918 38.5039C104.694 38.5039 103.665 38.8424 102.832 39.5195C101.999 40.1836 101.374 41.1016 100.957 42.2734C100.54 43.4323 100.332 44.7539 100.332 46.2383V46.668C100.332 48.1523 100.54 49.4805 100.957 50.6523C101.374 51.8112 101.999 52.7292 102.832 53.4062C103.678 54.0703 104.72 54.4023 105.957 54.4023Z" fill="#223648"/>
<path d="M125.078 57L119.512 38.6211L117.148 38.3477V35.8672H125.879V38.3477L123.281 38.7773L126.191 49.3047L126.855 51.8047H126.973L127.832 49.3047L132.422 35.8672H135.664L140.039 49.2656L140.977 52.2344H141.094L142.012 49.2656L144.961 38.7578L142.305 38.3477V35.8672H150.84V38.3477L148.496 38.6797L143.027 57H139.375L135.098 44.3047L134.082 40.9062L133.965 40.9258L132.969 44.3047L128.379 57H125.078Z" fill="#223648"/>
<path d="M162.441 57.4102C160.488 57.4102 158.789 56.9674 157.344 56.082C155.898 55.1836 154.779 53.9401 153.984 52.3516C153.203 50.763 152.812 48.9271 152.812 46.8438V45.9844C152.812 43.9792 153.223 42.1888 154.043 40.6133C154.876 39.0247 155.977 37.7747 157.344 36.8633C158.724 35.9388 160.228 35.4766 161.855 35.4766C163.757 35.4766 165.345 35.8672 166.621 36.6484C167.91 37.4297 168.88 38.5299 169.531 39.9492C170.182 41.3555 170.508 43.0156 170.508 44.9297V47.332H156.797L156.738 47.4297C156.764 48.7839 156.999 49.9883 157.441 51.043C157.897 52.0846 158.548 52.9049 159.395 53.5039C160.241 54.1029 161.257 54.4023 162.441 54.4023C163.743 54.4023 164.883 54.2201 165.859 53.8555C166.849 53.4779 167.702 52.9635 168.418 52.3125L169.922 54.8125C169.167 55.5417 168.164 56.1602 166.914 56.668C165.677 57.1628 164.186 57.4102 162.441 57.4102ZM156.914 44.3242H166.66V43.8164C166.66 42.8008 166.478 41.8958 166.113 41.1016C165.762 40.2943 165.228 39.6628 164.512 39.207C163.809 38.7383 162.923 38.5039 161.855 38.5039C160.996 38.5039 160.215 38.7578 159.512 39.2656C158.809 39.7604 158.229 40.4375 157.773 41.2969C157.318 42.1562 157.018 43.1328 156.875 44.2266L156.914 44.3242Z" fill="#223648"/>
<path d="M173.477 57V54.5391L176.66 53.9922V38.8945L173.477 38.3477V35.8672H180.098L180.43 38.5625L180.469 38.9336C181.068 37.8529 181.803 37.0065 182.676 36.3945C183.561 35.7826 184.57 35.4766 185.703 35.4766C186.107 35.4766 186.517 35.5156 186.934 35.5938C187.363 35.6589 187.669 35.724 187.852 35.7891L187.344 39.3633L184.668 39.207C183.652 39.1419 182.799 39.3763 182.109 39.9102C181.419 40.431 180.885 41.1341 180.508 42.0195V53.9922L183.691 54.5391V57H173.477Z" fill="#223648"/>
<path d="M199.434 57.4102C197.48 57.4102 195.781 56.9674 194.336 56.082C192.891 55.1836 191.771 53.9401 190.977 52.3516C190.195 50.763 189.805 48.9271 189.805 46.8438V45.9844C189.805 43.9792 190.215 42.1888 191.035 40.6133C191.868 39.0247 192.969 37.7747 194.336 36.8633C195.716 35.9388 197.22 35.4766 198.848 35.4766C200.749 35.4766 202.337 35.8672 203.613 36.6484C204.902 37.4297 205.872 38.5299 206.523 39.9492C207.174 41.3555 207.5 43.0156 207.5 44.9297V47.332H193.789L193.73 47.4297C193.757 48.7839 193.991 49.9883 194.434 51.043C194.889 52.0846 195.54 52.9049 196.387 53.5039C197.233 54.1029 198.249 54.4023 199.434 54.4023C200.736 54.4023 201.875 54.2201 202.852 53.8555C203.841 53.4779 204.694 52.9635 205.41 52.3125L206.914 54.8125C206.159 55.5417 205.156 56.1602 203.906 56.668C202.669 57.1628 201.178 57.4102 199.434 57.4102ZM193.906 44.3242H203.652V43.8164C203.652 42.8008 203.47 41.8958 203.105 41.1016C202.754 40.2943 202.22 39.6628 201.504 39.207C200.801 38.7383 199.915 38.5039 198.848 38.5039C197.988 38.5039 197.207 38.7578 196.504 39.2656C195.801 39.7604 195.221 40.4375 194.766 41.2969C194.31 42.1562 194.01 43.1328 193.867 44.2266L193.906 44.3242Z" fill="#223648"/>
<path d="M219.59 57.4102C217.871 57.4102 216.393 56.987 215.156 56.1406C213.932 55.2812 212.995 54.0898 212.344 52.5664C211.693 51.043 211.367 49.2656 211.367 47.2344V46.8242C211.367 44.5586 211.693 42.5729 212.344 40.8672C212.995 39.1615 213.939 37.8398 215.176 36.9023C216.413 35.9518 217.897 35.4766 219.629 35.4766C220.879 35.4766 221.979 35.7109 222.93 36.1797C223.893 36.6354 224.714 37.2995 225.391 38.1719V29.5586L222.207 29.0117V26.5312H225.391H229.238V53.9922L232.422 54.5391V57H225.898L225.586 54.4805C224.896 55.444 224.049 56.1732 223.047 56.668C222.057 57.1628 220.905 57.4102 219.59 57.4102ZM220.566 54.2852C221.712 54.2852 222.676 54.0247 223.457 53.5039C224.238 52.9831 224.883 52.2474 225.391 51.2969V41.4922C224.896 40.6068 224.251 39.9036 223.457 39.3828C222.663 38.862 221.712 38.6016 220.605 38.6016C219.382 38.6016 218.372 38.9531 217.578 39.6562C216.784 40.3464 216.191 41.3099 215.801 42.5469C215.41 43.7708 215.215 45.1966 215.215 46.8242V47.2344C215.215 49.3568 215.651 51.0625 216.523 52.3516C217.396 53.6406 218.743 54.2852 220.566 54.2852Z" fill="#223648"/>
<path d="M245.176 57V54.5391L248.359 53.9922V31.5898L245.176 31.043V28.5625H248.359H257.441C260.41 28.5625 262.728 29.207 264.395 30.4961C266.074 31.7721 266.914 33.6927 266.914 36.2578C266.914 37.5208 266.51 38.6536 265.703 39.6562C264.909 40.6458 263.854 41.3815 262.539 41.8633C263.685 42.0977 264.668 42.5599 265.488 43.25C266.309 43.9271 266.94 44.7604 267.383 45.75C267.839 46.7266 268.066 47.8008 268.066 48.9727C268.066 51.5768 267.22 53.569 265.527 54.9492C263.835 56.3164 261.543 57 258.652 57H245.176ZM252.207 53.9922H258.652C260.41 53.9922 261.771 53.5625 262.734 52.7031C263.711 51.8307 264.199 50.6003 264.199 49.0117C264.199 47.8919 264.017 46.9349 263.652 46.1406C263.301 45.3464 262.754 44.7344 262.012 44.3047C261.283 43.875 260.358 43.6602 259.238 43.6602H252.207V53.9922ZM252.207 40.6523H258.438C259.818 40.6523 260.931 40.2552 261.777 39.4609C262.637 38.6536 263.066 37.5599 263.066 36.1797C263.066 34.6432 262.585 33.4974 261.621 32.7422C260.658 31.974 259.264 31.5898 257.441 31.5898H252.207V40.6523Z" fill="#223648"/>
<path d="M275.449 65.5352C275.15 65.5352 274.759 65.4961 274.277 65.418C273.796 65.3529 273.424 65.2878 273.164 65.2227L273.555 62.1953C273.776 62.2214 274.082 62.2409 274.473 62.2539C274.863 62.2799 275.13 62.293 275.273 62.293C276.094 62.293 276.758 61.9805 277.266 61.3555C277.786 60.7305 278.268 59.8776 278.711 58.7969L279.629 56.5703L272.148 38.6602L269.883 38.3477V35.8672H278.75V38.3477L276.191 38.7383L280.312 49.3047L281.309 52.0586H281.426L286.309 38.7383L283.613 38.3477V35.8672H292.305V38.3477L290.117 38.6602L281.797 60.2422C281.406 61.2578 280.931 62.1628 280.371 62.957C279.824 63.7643 279.147 64.3958 278.34 64.8516C277.546 65.3073 276.582 65.5352 275.449 65.5352Z" fill="#223648"/>
</svg>
