<svg width="40" height="40" viewBox="0 0 80 80" fill="none" xmlns="http://www.w3.org/2000/svg">
<path d="M9.05181 24.8956C10.7027 24.8956 12.0689 23.5294 12.0689 21.8785C12.0689 20.2276 10.7027 18.8614 9.05181 18.8614C7.40094 18.8614 6.0347 20.2276 6.0347 21.8785C6.0347 23.5294 7.40094 24.8956 9.05181 24.8956Z" fill="#223648"/>
<path d="M3.01711 6.04749C4.66798 6.04749 6.03422 4.68125 6.03422 3.03038C6.03422 1.37951 4.66798 0.0132675 3.01711 0.0132675C1.36624 0.0132675 0 1.37951 0 3.03038C0 4.68125 1.36624 6.04749 3.01711 6.04749Z" fill="#223648"/>
<path d="M79.0715 29.4994C78.0468 25.1161 76.339 20.8466 74.2327 16.8617C74.2327 16.9755 75.1436 25.2868 69.9632 31.7195C69.7925 31.9472 69.6217 32.175 69.394 32.4027C69.394 32.4027 69.394 32.4596 69.3371 32.4596C68.4262 33.5412 67.3446 34.452 66.1492 35.3059C64.726 36.2737 63.2459 36.9568 61.652 37.5261C60.1149 38.0953 58.4641 38.4938 56.5286 38.7784C55.3331 38.9492 54.0807 39.12 52.8853 39.2339C48.2173 39.6893 43.3785 39.7462 38.7105 38.8923C34.9534 38.2092 31.2531 36.9568 27.6668 35.7613C22.4864 34.0535 14.5736 34.2243 10.8734 40.9417C7.11626 47.7159 9.67796 56.3688 12.5243 60.5244C20.2663 71.9097 34.441 79.2533 48.2742 76.2931C56.984 74.4145 64.5552 68.9496 70.3617 62.3461C78.3884 53.1809 81.804 41.3971 79.0715 29.4994Z" fill="#F9B534"/>
<path d="M13.8897 5.25239C14.1743 5.53702 14.5728 5.76473 14.9713 5.87858C15.3698 5.99244 15.7683 6.10629 16.2237 6.04936H34.4971C34.8956 6.04936 35.351 6.22014 35.6926 6.50478C35.9772 6.78941 36.148 7.24482 36.148 7.70024C36.148 8.15565 35.9772 8.55413 35.6926 8.89569C35.351 9.18033 34.9526 9.40803 34.4971 9.40803H25.0473C24.3073 9.46496 23.5672 9.80652 22.998 10.3189C22.4287 10.8881 22.201 11.6282 22.201 12.4251C22.201 13.1652 22.4856 13.9622 22.998 14.5314C23.5103 15.1007 24.2504 15.4423 25.0473 15.4423H42.8654C43.2638 15.4423 43.7193 15.613 44.0608 15.8977C44.3455 16.1823 44.5162 16.6377 44.5162 17.0931C44.5162 17.5485 44.3455 17.947 44.0608 18.2886C43.7193 18.6301 43.2638 18.8009 42.8084 18.8009H18.8993C18.1592 18.8579 17.4192 19.1994 16.8499 19.7118C16.3376 20.281 16.0529 21.0211 16.0529 21.818C16.0529 22.615 16.3376 23.3551 16.8499 23.9243C17.4192 24.4936 18.2161 24.7782 18.9562 24.7782H45.6548C51.689 24.7782 56.7555 29.5031 56.9832 35.4804C57.0401 36.619 56.8693 37.7575 56.5847 38.7822C76.2244 35.822 74.2888 17.0931 74.2319 16.9223C73.7765 16.0115 72.0118 13.6775 71.2717 12.9375C67.5715 8.89569 63.0743 5.65088 58.0078 3.43074C53.1691 1.15367 47.7041 0.0151417 42.2392 0.0151417H16.1098C15.7114 -0.0417849 15.2559 0.0720679 14.8575 0.185921C14.459 0.299774 14.1174 0.527481 13.7759 0.812114C13.4912 1.09675 13.2066 1.43831 13.0358 1.83679C12.865 2.23528 12.8081 2.63377 12.8081 3.03225C12.8081 3.43074 12.865 3.82923 13.0358 4.22771C13.3204 4.6262 13.5482 4.96776 13.8897 5.25239Z" fill="#223648"/>
</svg>
